<svg xmlns="http://www.w3.org/2000/svg" viewBox="0 0 1792 923" preserveAspectRatio="xMidYMid" width="1792" height="923" xmlns:xlink="http://www.w3.org/1999/xlink" style="shape-rendering:auto;display:block;background-position-x:0%;background-position-y:0%;background-size:auto;background-origin:padding-box;background-clip:border-box;background:scroll rgb(255, 255, 255) none  repeat;width:1792px;height:923px;;animation:none"><g><linearGradient y2="0" y1="0" x2="1" x1="0" id="lg-0.2545556709434116"><stop offset="0" stop-color="#b3dcff"></stop>

  
<stop offset="1" stop-color="#5ecc62"></stop></linearGradient>
<path opacity="0.4" fill="url(#lg-0.2545556709434116)" d="M 0 0 M 0 859.819 Q 179.2 813.479 358.4 804.056 T 716.8 767.422 T 1075.2 778.016 T 1433.6 666.753 T 1792 677.166 L 1792 229.898 Q 1612.8 253.457 1433.6 248.363 T 1075.2 223.089 T 716.8 162.586 T 358.4 147.464 T 0 136.889 Z" style="fill:url('#lg-0.2545556709434116');opacity:0.4;;animation:none"></path>
<path opacity="0.4" fill="url(#lg-0.2545556709434116)" d="M 0 0 M 0 873.257 Q 179.2 816.873 358.4 809.534 T 716.8 794.334 T 1075.2 731.525 T 1433.6 744.784 T 1792 654.104 L 1792 254.837 Q 1612.8 278.985 1433.6 269.441 T 1075.2 156.735 T 716.8 128.345 T 358.4 163.917 T 0 104.935 Z" style="fill:url('#lg-0.2545556709434116');opacity:0.4;;animation:none"></path>
<path opacity="0.4" fill="url(#lg-0.2545556709434116)" d="M 0 0 M 0 825.725 Q 179.2 831.543 358.4 826.455 T 716.8 802.18 T 1075.2 688.737 T 1433.6 667.201 T 1792 664.781 L 1792 218.11 Q 1612.8 236.018 1433.6 231.075 T 1075.2 203.896 T 716.8 170.821 T 358.4 105.579 T 0 90.3298 Z" style="fill:url('#lg-0.2545556709434116');opacity:0.4;;animation:none"></path>
<path opacity="0.4" fill="url(#lg-0.2545556709434116)" d="M 0 0 M 0 849.457 Q 179.2 787.87 358.4 784.541 T 716.8 768.242 T 1075.2 752.728 T 1433.6 667.241 T 1792 656.15 L 1792 273.774 Q 1612.8 216.688 1433.6 214.413 T 1075.2 186.658 T 716.8 155.38 T 358.4 144.466 T 0 128.502 Z" style="fill:url('#lg-0.2545556709434116');opacity:0.4;;animation:none"></path>
<g></g></g><!-- [ldio] generated by https://loading.io --></svg>