<svg width="3689" height="1913" viewBox="0 0 3689 1913" fill="none" xmlns="http://www.w3.org/2000/svg">
<path d="M1185.17 890L1189.17 753.6L1290.37 749L1291.97 789.4L1236.97 788.2L1236.37 804L1278.97 801.4L1281.17 832L1235.57 832.6L1234.97 850L1290.77 844.6L1294.37 892.4L1185.17 890ZM1288.33 773.4L1342.93 771L1354.93 811.4H1357.33L1364.93 769.6L1419.93 775L1386.93 834.6L1419.93 888.6L1364.93 894L1357.33 859H1354.93L1342.93 892.6L1288.33 890.2L1320.53 834.6L1288.33 773.4ZM1416.46 891L1414.86 778.6C1431.46 773.6 1453.86 769 1473.46 769.2C1506.46 769.6 1528.66 787.8 1528.66 814.2C1528.66 849.6 1504.26 867.4 1463.26 862L1463.86 893L1416.46 891ZM1457.26 835.4C1461.86 835.8 1463.66 835.8 1468.26 835.8C1477.66 835.8 1483.26 830.6 1483.26 820.4C1483.26 810.2 1478.26 804.4 1469.06 804.4C1462.86 804.4 1459.06 806.2 1456.46 808.4L1457.26 835.4ZM1524.65 890.2L1528.05 769L1573.45 772L1575.45 849.4L1606.65 845.4L1610.25 891.4L1524.65 890.2ZM1602.44 830.4C1602.44 793.4 1627.64 769 1663.24 769C1698.64 769 1724.24 793.4 1724.24 830.4C1724.24 867.4 1698.64 891.8 1663.24 891.8C1627.64 891.8 1602.44 867.4 1602.44 830.4ZM1637.84 832C1637.84 846 1647.24 855.8 1660.84 855.8C1674.04 855.8 1683.64 846 1683.64 832C1683.64 817.8 1674.04 808.4 1660.84 808.4C1647.24 808.4 1637.84 817.8 1637.84 832ZM1815.11 850V850.8L1845.71 877L1807.91 907.6L1770.51 859.8L1769.31 860L1769.91 893L1722.91 891L1721.31 778.6C1737.91 773.6 1759.91 769 1779.51 769.2C1812.51 769.6 1834.71 787.2 1834.71 813C1834.71 829.2 1827.11 843.4 1815.11 850ZM1763.31 833.4C1767.91 833.8 1769.71 833.8 1774.31 833.8C1783.71 833.8 1789.31 829 1789.31 819.4C1789.31 809.8 1784.31 804.4 1775.11 804.4C1768.91 804.4 1765.11 806 1762.51 808.2L1763.31 833.4ZM1827.74 888.4L1867.74 770.2L1925.34 771.8L1959.34 886.4L1906.34 891.8L1902.94 869.6H1883.34L1880.34 892.4L1827.74 888.4ZM1884.74 845.2H1906.34L1896.34 803.8H1892.74L1884.74 845.2ZM1959.36 875.8C1959.36 865.4 1966.36 858.6 1976.96 858.6C1987.76 858.6 1994.56 865.4 1994.56 875.8C1994.56 886 1987.76 893 1976.96 893C1966.36 893 1959.36 886 1959.36 875.8ZM2048.49 752.2L2103.09 749.8L2117.49 854.4H2121.09L2131.09 748.4L2186.09 753.8L2151.29 890.4L2085.49 892.4L2048.49 752.2ZM2184.27 794.2L2186.27 763.4L2231.07 759.8L2233.67 793L2184.27 794.2ZM2182.07 889L2186.07 805L2232.47 802L2235.87 893L2182.07 889ZM2231.89 772L2285.49 769.6L2297.89 854.4H2301.49L2309.49 768.2L2363.49 773.6L2330.69 890.4L2266.89 892.4L2231.89 772ZM2356.51 890L2354.51 772.4L2449.71 769.8L2451.31 806.8L2401.91 804.2L2402.11 817.8L2437.91 815.2L2436.71 840.2L2402.51 840.8L2402.71 854.2L2456.11 848.6L2451.71 892.4L2356.51 890ZM2462.1 875.8C2462.1 865.4 2469.1 858.6 2479.7 858.6C2490.5 858.6 2497.3 865.4 2497.3 875.8C2497.3 886 2490.5 893 2479.7 893C2469.1 893 2462.1 886 2462.1 875.8ZM1378.16 1119.8L1373.16 988.6C1389.76 983.6 1420.16 979 1439.76 979.2C1477.56 979.6 1500.96 996.6 1500.96 1024.2C1500.96 1044.4 1489.16 1059.6 1472.16 1064.8V1065.6L1508.56 1093.8L1471.16 1132.8L1419.96 1074L1418.76 1074.2L1428.16 1121.8L1378.16 1119.8ZM1421.56 1046.4C1427.56 1046.8 1429.96 1046.8 1435.96 1046.8C1448.36 1046.8 1455.56 1041.6 1455.56 1031.4C1455.56 1021.2 1448.96 1015.4 1437.16 1015.4C1429.16 1015.4 1424.16 1017.2 1420.76 1019.4L1421.56 1046.4ZM1501.53 1120L1499.53 1002.4L1594.73 999.8L1596.33 1036.8L1546.93 1034.2L1547.13 1047.8L1582.93 1045.2L1581.73 1070.2L1547.53 1070.8L1547.73 1084.2L1601.13 1078.6L1596.73 1122.4L1501.53 1120ZM1657.72 1123.2C1616.72 1123.2 1595.12 1101.4 1595.12 1060.4C1595.12 1022.8 1620.12 997.2 1656.32 997.2C1678.92 997.2 1695.12 1003.4 1708.92 1016.8L1688.32 1048.2C1680.92 1040.4 1670.72 1035.6 1660.92 1035.6C1646.92 1035.6 1639.52 1045.8 1639.52 1058C1639.52 1071 1646.92 1080.8 1661.92 1080.8C1671.72 1080.8 1681.72 1075 1691.72 1064.6L1712.32 1098.6C1696.72 1115.4 1679.72 1123.2 1657.72 1123.2ZM1761.59 1122.2C1703.39 1122.2 1685.99 1083.8 1712.99 1004.4L1756.19 999.2C1748.39 1037.2 1742.79 1081.2 1762.99 1081.2C1783.19 1081.2 1777.99 1049.8 1772.79 999.8L1814.59 1002C1840.19 1071.6 1819.59 1122.2 1761.59 1122.2ZM1824.58 1120L1822.58 1002.4L1917.78 999.8L1919.38 1036.8L1869.98 1034.2L1870.18 1047.8L1905.98 1045.2L1904.78 1070.2L1870.58 1070.8L1870.78 1084.2L1924.18 1078.6L1919.78 1122.4L1824.58 1120ZM2016.96 1080V1080.8L2047.56 1107L2009.76 1137.6L1972.36 1089.8L1971.16 1090L1971.76 1123L1924.76 1121L1923.16 1008.6C1939.76 1003.6 1961.76 999 1981.36 999.2C2014.36 999.6 2036.56 1017.2 2036.56 1043C2036.56 1059.2 2028.96 1073.4 2016.96 1080ZM1965.16 1063.4C1969.76 1063.8 1971.56 1063.8 1976.16 1063.8C1985.56 1063.8 1991.16 1059 1991.16 1049.4C1991.16 1039.8 1986.16 1034.4 1976.96 1034.4C1970.76 1034.4 1966.96 1036 1964.36 1038.2L1965.16 1063.4ZM2039.79 1113.8L2038.59 1005.8C2060.59 1000.2 2083.79 996.8 2106.39 1000.2C2137.19 1004.8 2160.59 1020.4 2160.59 1060.6C2160.59 1095.4 2142.79 1117.2 2106.19 1121.2C2083.59 1123.6 2061.59 1120 2039.79 1113.8ZM2083.79 1037.8L2084.39 1080.8C2086.39 1083 2092.19 1084.4 2096.39 1084.4C2104.59 1084.4 2112.19 1074.2 2112.19 1060C2112.19 1046.2 2105.59 1035.8 2096.79 1035.8C2091.99 1035.8 2087.79 1036.2 2083.79 1037.8ZM2142.48 1118.4L2182.48 1000.2L2240.08 1001.8L2274.08 1116.4L2221.08 1121.8L2217.68 1099.6H2198.08L2195.08 1122.4L2142.48 1118.4ZM2199.48 1075.2H2221.08L2211.08 1033.8H2207.48L2199.48 1075.2ZM2274.11 1105.8C2274.11 1095.4 2281.11 1088.6 2291.71 1088.6C2302.51 1088.6 2309.31 1095.4 2309.31 1105.8C2309.31 1116 2302.51 1123 2291.71 1123C2281.11 1123 2274.11 1116 2274.11 1105.8Z" fill="white"/>
</svg>
