<svg width="3840" height="1970" viewBox="0 0 3840 1970" fill="none" xmlns="http://www.w3.org/2000/svg">
<path d="M1502.46 447.392C1456.86 447.392 1432.86 422.592 1432.86 375.992C1432.86 333.192 1460.66 304.192 1501.26 304.192C1525.26 304.192 1545.26 310.192 1556.26 320.992L1535.66 354.392C1527.66 348.392 1515.66 344.592 1505.06 344.592C1489.66 344.592 1479.26 356.192 1479.26 373.592C1479.26 391.992 1489.26 402.992 1505.46 402.992C1518.86 402.992 1532.86 394.792 1544.46 380.592L1567.86 416.192C1551.26 436.792 1531.26 447.392 1502.46 447.392ZM1549.95 442.592L1589.95 324.392L1647.55 325.992L1681.55 440.592L1628.55 445.992L1625.15 423.792H1605.55L1602.55 446.592L1549.95 442.592ZM1606.95 399.392H1628.55L1618.55 357.992H1614.95L1606.95 399.392ZM1676.18 445.192L1674.58 332.792C1691.18 327.792 1713.58 323.192 1733.18 323.392C1766.18 323.792 1788.38 341.992 1788.38 368.392C1788.38 403.792 1763.98 421.592 1722.98 416.192L1723.58 447.192L1676.18 445.192ZM1716.98 389.592C1721.58 389.992 1723.38 389.992 1727.98 389.992C1737.38 389.992 1742.98 384.792 1742.98 374.592C1742.98 364.392 1737.98 358.592 1728.78 358.592C1722.58 358.592 1718.78 360.392 1716.18 362.592L1716.98 389.592ZM1764.4 442.592L1804.4 324.392L1862 325.992L1896 440.592L1843 445.992L1839.6 423.792H1820L1817 446.592L1764.4 442.592ZM1821.4 399.392H1843L1833 357.992H1829.4L1821.4 399.392ZM1940.57 447.392C1899.57 447.392 1877.97 425.592 1877.97 384.592C1877.97 346.992 1902.97 321.392 1939.17 321.392C1961.77 321.392 1977.97 327.592 1991.77 340.992L1971.17 372.392C1963.77 364.592 1953.57 359.792 1943.77 359.792C1929.77 359.792 1922.37 369.992 1922.37 382.192C1922.37 395.192 1929.77 404.992 1944.77 404.992C1954.57 404.992 1964.57 399.192 1974.57 388.792L1995.17 422.792C1979.57 439.592 1962.57 447.392 1940.57 447.392ZM1989.25 443.192L1993.25 326.192L2041.65 323.192L2040.65 370.792L2065.25 369.792L2066.05 321.592L2112.45 323.192L2115.85 443.992L2064.05 445.992L2064.65 403.392L2040.05 401.792L2039.05 445.192L1989.25 443.192ZM2122.11 348.392L2124.11 317.592L2168.91 313.992L2171.51 347.192L2122.11 348.392ZM2119.91 443.192L2123.91 359.192L2170.31 356.192L2173.71 447.192L2119.91 443.192ZM2234.32 447.392C2193.32 447.392 2171.72 425.592 2171.72 384.592C2171.72 346.992 2196.72 321.392 2232.92 321.392C2255.52 321.392 2271.72 327.592 2285.52 340.992L2264.92 372.392C2257.52 364.592 2247.32 359.792 2237.52 359.792C2223.52 359.792 2216.12 369.992 2216.12 382.192C2216.12 395.192 2223.52 404.992 2238.52 404.992C2248.32 404.992 2258.32 399.192 2268.32 388.792L2288.92 422.792C2273.32 439.592 2256.32 447.392 2234.32 447.392ZM2273 442.592L2313 324.392L2370.6 325.992L2404.6 440.592L2351.6 445.992L2348.2 423.792H2328.6L2325.6 446.592L2273 442.592ZM2330 399.392H2351.6L2341.6 357.992H2338L2330 399.392ZM1719.56 673.192L1665.76 677.192L1668.16 578.192L1627.56 577.592L1624.96 539.592L1757.76 533.192L1755.36 579.592L1716.76 578.992L1719.56 673.192ZM1740.18 614.592C1740.18 577.592 1765.38 553.192 1800.98 553.192C1836.38 553.192 1861.98 577.592 1861.98 614.592C1861.98 651.592 1836.38 675.992 1800.98 675.992C1765.38 675.992 1740.18 651.592 1740.18 614.592ZM1775.58 616.192C1775.58 630.192 1784.98 639.992 1798.58 639.992C1811.78 639.992 1821.38 630.192 1821.38 616.192C1821.38 601.992 1811.78 592.592 1798.58 592.592C1784.98 592.592 1775.58 601.992 1775.58 616.192ZM1915.25 676.392C1857.05 676.392 1839.65 637.992 1866.65 558.592L1909.85 553.392C1902.05 591.392 1896.45 635.392 1916.65 635.392C1936.85 635.392 1931.65 603.992 1926.45 553.992L1968.25 556.192C1993.85 625.792 1973.25 676.392 1915.25 676.392ZM2070.04 634.192V634.992L2100.64 661.192L2062.84 691.792L2025.44 643.992L2024.24 644.192L2024.84 677.192L1977.84 675.192L1976.24 562.792C1992.84 557.792 2014.84 553.192 2034.44 553.392C2067.44 553.792 2089.64 571.392 2089.64 597.192C2089.64 613.392 2082.04 627.592 2070.04 634.192ZM2018.24 617.592C2022.84 617.992 2024.64 617.992 2029.24 617.992C2038.64 617.992 2044.24 613.192 2044.24 603.592C2044.24 593.992 2039.24 588.592 2030.04 588.592C2023.84 588.592 2020.04 590.192 2017.44 592.392L2018.24 617.592ZM2090.27 593.992C2090.27 571.192 2116.07 554.192 2151.07 554.192C2166.47 554.192 2184.27 558.192 2195.27 563.992L2181.87 597.192C2174.47 593.992 2164.87 591.992 2156.87 592.192C2143.47 592.592 2139.07 594.992 2140.47 600.592C2143.47 612.192 2200.47 591.992 2200.47 636.792C2200.47 661.392 2177.67 676.192 2140.07 676.192C2120.87 676.192 2096.07 671.392 2086.67 665.992L2100.67 628.192C2105.87 631.592 2122.07 643.192 2136.87 644.192C2149.67 645.192 2151.07 636.592 2149.07 633.392C2142.67 623.592 2090.27 636.992 2090.27 593.992Z" fill="white"/>
</svg>
